<?xml version="1.0" encoding="UTF-8" standalone="no"?>
<svg width="493px" height="541px" viewBox="0 0 493 541" version="1.1" xmlns="http://www.w3.org/2000/svg" xmlns:xlink="http://www.w3.org/1999/xlink" xmlns:sketch="http://www.bohemiancoding.com/sketch/ns">
    <!-- Generator: Sketch 3.4.4 (17249) - http://www.bohemiancoding.com/sketch -->
    <title>noun_36403_cc</title>
    <desc>Created with Sketch.</desc>
    <defs></defs>
    <g id="Page-1" stroke="none" stroke-width="1" fill="none" fill-rule="evenodd" sketch:type="MSPage">
        <g id="noun_36403_cc" sketch:type="MSLayerGroup" transform="translate(-162.000000, 0.000000)">
            <g id="Group" transform="translate(173.353401, 9.001396)" sketch:type="MSShapeGroup">
                <path d="M337.879283,0.000697913606 C281.466162,0.000697913606 235.855554,45.6113062 235.855554,101.424287 C235.855554,108.625962 236.455694,116.427777 238.256112,123.029312 C241.25681,136.832523 247.258206,149.435454 255.060021,160.237967 L328.27705,253.259602 C333.078166,259.861137 342.6804,259.861137 348.081656,253.259602 L421.298685,160.237967 C429.1005,149.435454 435.101895,136.832523 438.102593,123.029312 C439.903012,115.827637 440.503152,108.625962 440.503152,101.424287 C439.903012,45.0111666 393.692264,0.000697913606 337.879283,0.000697913606 L337.879283,0.000697913606 Z M337.879283,141.0335 C313.8737,141.0335 294.069093,121.829033 294.069093,97.2233103 C294.069093,73.217727 313.8737,53.4131208 337.879283,53.4131208 C361.884866,53.4131208 381.689473,72.6175874 381.689473,97.2233103 C381.089333,121.829033 361.884866,141.0335 337.879283,141.0335 L337.879283,141.0335 Z" id="Shape" fill="#EC493D"></path>
                <path d="M156.036989,198.04676 L210.649691,227.4536 L265.262393,256.860439 L240.056531,282.066302 L214.850669,307.272164 L185.443829,252.659462 L156.036989,198.04676 Z" id="Shape" stroke="#000000" stroke-width="3"></path>
                <path d="M324.076073,366.085843 L294.669233,311.473141 L265.262393,256.860439 L240.056531,282.066302 L214.850669,307.272164 L269.463371,336.679004 L324.076073,366.085843 Z" id="Shape" stroke="#000000" stroke-width="3"></path>
            </g>
            <g id="Group" transform="translate(162.000000, 0.000000)" fill="#FFFFFF" sketch:type="MSShapeGroup">
                <path d="M446.255018,146.434058 C447.455297,142.233081 448.655576,138.632244 449.855855,134.431267 C451.656274,126.629452 452.256413,118.827637 452.256413,111.025823 C452.256413,49.2114458 403.044968,0 343.031009,0 C308.222914,0 277.015655,16.8039083 256.610909,42.6099104 L246.408537,42.6099104 C110.776991,42.6099104 0.35130767,154.235873 0.35130767,291.667837 C0.35130767,429.099802 110.776991,540.125624 246.408537,540.125624 C382.040082,540.125624 492.465766,428.499662 492.465766,291.067698 C492.465766,237.055135 475.061718,187.24355 446.255018,146.434058 Z M253.610212,174.640619 L326.227101,267.662254 C330.428078,273.06351 336.429474,276.064208 343.031009,276.064208 C349.632545,276.064208 355.633941,273.06351 359.834918,267.662254 L407.846084,206.448016 C421.049155,231.653879 428.25083,260.460579 428.25083,291.067698 C428.25083,392.491287 346.631847,474.71041 247.008676,474.71041 C147.385505,474.71041 65.1663826,392.491287 65.1663826,291.067698 C65.1663826,194.445225 139.583691,115.2268 233.205466,108.025125 L233.205466,110.425683 C233.205466,118.227498 233.805605,126.029312 235.606024,133.831127 C238.606722,148.834617 244.608118,162.037687 253.610212,174.640619 Z M246.408537,522.121437 C120.379224,522.121437 18.3554952,418.297289 18.3554952,291.067698 C18.3554952,164.438246 120.379224,60.6140979 245.208257,60.0139583 C240.407141,69.016052 236.806303,79.2184249 235.005885,90.0209374 C130.581597,96.0223332 47.1621951,183.642712 47.1621951,291.067698 C47.1621951,402.09352 136.582993,492.714597 246.408537,492.714597 C356.23408,492.714597 445.654878,402.09352 445.654878,291.067698 C445.654878,254.459183 436.052645,220.251227 419.248736,190.844387 L431.851668,174.640619 C433.652086,171.639921 436.052645,168.639223 437.853063,165.638525 C461.258507,201.6469 474.461578,244.85695 474.461578,291.067698 C474.461578,418.297289 372.437849,522.121437 246.408537,522.121437 Z M253.610212,89.4207978 C256.01077,79.2184249 260.211747,69.6161916 265.613003,60.6140979 C269.213841,54.612702 274.014957,49.2114458 278.816074,43.8101895 C295.019843,28.2065604 317.825147,18.0041875 343.031009,18.0041875 C393.442734,18.0041875 434.852366,59.4138187 434.852366,110.425683 C434.852366,116.427079 434.252226,122.428475 433.051947,129.03001 L433.051947,130.230289 C431.851668,136.831825 429.451109,142.833221 426.450411,148.834617 C424.049853,154.235873 421.049155,159.036989 418.048457,163.237967 L409.046364,174.640619 L397.643711,189.644108 L345.431568,256.259602 C344.831428,257.459881 343.631149,257.459881 343.031009,257.459881 C342.43087,257.459881 341.230591,257.459881 340.630451,256.259602 L268.613701,163.838106 C261.412026,153.635733 256.610909,142.233081 253.610212,130.230289 C252.409932,123.628754 251.209653,117.027219 251.209653,110.425683 C250.609514,109.225404 251.209653,108.625264 251.209653,107.424985 C251.209653,101.423589 252.409932,95.4221937 253.610212,89.4207978 Z" id="Shape"></path>
                <path d="M156.987739,200.446621 C153.987041,203.447319 153.386901,207.648296 155.18732,211.249133 L213.40086,320.474537 C213.40086,320.474537 213.40086,320.474537 214.000999,321.074677 C214.000999,321.674816 214.601139,321.674816 214.601139,321.674816 L215.201278,322.274956 L215.801418,322.875096 L216.401557,323.475235 C216.401557,323.475235 216.401557,323.475235 217.001697,324.075375 L325.026822,382.889054 C326.227101,383.489193 328.02752,384.089333 329.227799,384.089333 C331.628357,384.089333 334.028916,382.889054 335.229195,381.688775 C338.229893,378.688077 338.830032,374.4871 337.029614,370.886262 L279.416214,261.660858 C279.416214,261.660858 279.416214,261.660858 278.816074,261.060718 L278.215934,260.460579 L277.615795,259.860439 L277.015655,259.2603 L276.415516,258.66016 C276.415516,258.66016 276.415516,258.66016 275.815376,258.060021 L167.790251,199.246341 C164.189414,197.445923 159.988437,198.046062 156.987739,200.446621 L156.987739,200.446621 Z M236.206164,313.873002 L269.213841,280.865325 L307.622774,352.882075 L236.206164,313.873002 L236.206164,313.873002 Z M256.610909,268.262393 L223.603232,301.270071 L185.194299,229.253321 L256.610909,268.262393 L256.610909,268.262393 Z" id="Compass-Arrows"></path>
                <path d="M343.031009,159.036989 C351.432964,159.036989 359.234778,157.236571 366.436453,153.035594 C371.837709,150.034896 376.638826,146.434058 380.839803,142.233081 C387.441339,135.031406 392.242455,125.429173 394.042874,115.2268 C394.643014,112.226102 394.643014,109.825544 394.643014,106.824846 C394.643014,101.423589 394.042874,96.0223332 392.242455,90.621077 C385.64092,69.6161916 365.836314,54.0125624 342.43087,54.0125624 C337.629753,54.0125624 332.828636,54.612702 328.02752,56.4131208 C320.225705,58.8136791 313.02403,63.0146562 307.022634,68.4159124 C299.820959,75.6175874 294.419703,84.6196812 292.019145,94.8220541 C291.419005,98.4228916 290.818866,102.623869 290.818866,106.824846 C290.818866,109.225404 290.818866,111.025823 291.419005,113.426381 C294.419703,139.232383 316.024728,159.036989 343.031009,159.036989 L343.031009,159.036989 Z M309.423193,99.6231707 C311.823751,88.8206582 319.025426,79.8185645 328.627659,75.0174478 C332.828636,73.2170291 338.229893,72.0167499 343.031009,72.0167499 C360.435057,72.0167499 374.238268,84.6196812 376.638826,101.423589 C376.638826,103.224008 377.238966,105.024427 377.238966,106.824846 C377.238966,116.427079 373.638128,124.829033 367.636732,130.830429 C362.835616,135.631546 356.83422,138.632244 350.232684,140.432662 C347.832126,141.032802 345.431568,141.032802 343.031009,141.032802 C328.627659,141.032802 316.024728,132.030708 311.223612,119.427777 C309.423193,115.2268 308.823053,111.025823 308.823053,106.824846 C308.222914,104.424287 308.823053,102.023729 309.423193,99.6231707 L309.423193,99.6231707 Z" id="inner-circle"></path>
            </g>
        </g>
    </g>
</svg>