<?xml version="1.0" encoding="UTF-8" standalone="no"?>
<svg width="226px" height="279px" viewBox="0 0 226 279" version="1.1" xmlns="http://www.w3.org/2000/svg" xmlns:xlink="http://www.w3.org/1999/xlink" xmlns:sketch="http://www.bohemiancoding.com/sketch/ns">
    <!-- Generator: Sketch 3.3.2 (12043) - http://www.bohemiancoding.com/sketch -->
    <title>noun_36403_cc copy 3</title>
    <desc>Created with Sketch.</desc>
    <defs></defs>
    <g id="Page-1" stroke="none" stroke-width="1" fill="none" fill-rule="evenodd" sketch:type="MSPage">
        <g id="noun_36403_cc-copy-3" sketch:type="MSLayerGroup" transform="translate(10.442073, 10.743628)">
            <g id="Group" transform="translate(0.353401, 0.001396)" sketch:type="MSShapeGroup">
                <path d="M102.023729,0 C45.6106083,0 -5.68434189e-14,45.6106083 -5.68434189e-14,101.423589 C-5.68434189e-14,108.625264 0.600139583,116.427079 2.40055833,123.028614 C5.40125624,136.831825 11.4026521,149.434756 19.2044666,160.237269 L92.4214957,253.258904 C97.2226124,259.860439 106.824846,259.860439 112.226102,253.258904 L185.443131,160.237269 C193.244946,149.434756 199.246341,136.831825 202.247039,123.028614 C204.047458,115.826939 204.647598,108.625264 204.647598,101.423589 C204.047458,45.0104687 157.83671,0 102.023729,0 L102.023729,0 Z M102.023729,141.032802 C78.0181458,141.032802 58.2135395,121.828335 58.2135395,97.2226124 C58.2135395,73.2170291 78.0181458,53.4124229 102.023729,53.4124229 C126.029312,53.4124229 145.833919,72.6168895 145.833919,97.2226124 C145.233779,121.828335 126.029312,141.032802 102.023729,141.032802 L102.023729,141.032802 Z" id="Shape" stroke="#FFFFFF" stroke-width="20" fill="#EC493D"></path>
                <path d="M102.212144,150.024427 C110.614098,150.024427 118.415912,148.224008 125.617587,144.023031 C131.018844,141.022333 135.81996,137.421496 140.020937,133.220519 C146.622473,126.018844 151.423589,116.41661 153.224008,106.214237 C153.824148,103.21354 153.824148,100.812981 153.824148,97.8122833 C153.824148,92.411027 153.224008,87.0097708 151.423589,81.6085145 C144.822054,60.6036292 125.017448,45 101.612004,45 C96.8108875,45 92.0097708,45.6001396 87.2086541,47.4005583 C79.4068396,49.8011167 72.2051646,54.0020937 66.2037687,59.40335 C59.0020937,66.605025 53.6008375,75.6071187 51.2002792,85.8094916 C50.6001396,89.4103291 50,93.6113062 50,97.8122833 C50,100.212842 50,102.01326 50.6001396,104.413819 C53.6008375,130.219821 75.2058625,150.024427 102.212144,150.024427 L102.212144,150.024427 Z M68.6043271,90.6106083 C71.0048854,79.8080958 78.2065604,70.8060021 87.8087937,66.0048854 C92.0097708,64.2044666 97.411027,63.0041875 102.212144,63.0041875 C119.616192,63.0041875 133.419402,75.6071187 135.81996,92.411027 C135.81996,94.2114458 136.4201,96.0118645 136.4201,97.8122833 C136.4201,107.414517 132.819262,115.816471 126.817867,121.817867 C122.01675,126.618983 116.015354,129.619681 109.413819,131.4201 C107.01326,132.020239 104.612702,132.020239 102.212144,132.020239 C87.8087937,132.020239 75.2058625,123.018146 70.4047458,110.415215 C68.6043271,106.214237 68.0041875,102.01326 68.0041875,97.8122833 C67.4040479,95.4117249 68.0041875,93.0111666 68.6043271,90.6106083 L68.6043271,90.6106083 Z" id="inner-circle" fill="#FFFFFF"></path>
            </g>
        </g>
    </g>
</svg>